<?xml version="1.0" encoding="UTF-8" standalone="no"?>
<!-- Created with Inkscape (http://www.inkscape.org/) -->

<svg
   xmlns:dc="http://purl.org/dc/elements/1.1/"
   xmlns:cc="http://creativecommons.org/ns#"
   xmlns:rdf="http://www.w3.org/1999/02/22-rdf-syntax-ns#"
   xmlns:svg="http://www.w3.org/2000/svg"
   xmlns="http://www.w3.org/2000/svg"
   xmlns:sodipodi="http://sodipodi.sourceforge.net/DTD/sodipodi-0.dtd"
   xmlns:inkscape="http://www.inkscape.org/namespaces/inkscape"
   version="1.1"
   width="198.38451"
   height="198.57452"
   viewBox="0 0 198.3845 198.57452"
   id="Layer_1"
   xml:space="preserve"
   inkscape:version="0.48.4 r9939"
   sodipodi:docname="logo.svg"><sodipodi:namedview
     pagecolor="#ffffff"
     bordercolor="#666666"
     borderopacity="1"
     objecttolerance="10"
     gridtolerance="10"
     guidetolerance="10"
     inkscape:pageopacity="0"
     inkscape:pageshadow="2"
     inkscape:window-width="640"
     inkscape:window-height="480"
     id="namedview20"
     showgrid="false"
     fit-margin-top="0"
     fit-margin-left="0"
     fit-margin-right="0"
     fit-margin-bottom="0"
     inkscape:zoom="0.74491702"
     inkscape:cx="80.33398"
     inkscape:cy="79.806325"
     inkscape:window-x="10"
     inkscape:window-y="34"
     inkscape:window-maximized="0"
     inkscape:current-layer="Layer_1" /><metadata
     id="metadata9"><rdf:RDF><cc:Work
         rdf:about=""><dc:format>image/svg+xml</dc:format><dc:type
           rdf:resource="http://purl.org/dc/dcmitype/StillImage" /><dc:title /></cc:Work></rdf:RDF></metadata><defs
     id="defs7"><filter
       color-interpolation-filters="sRGB"
       id="filter4118"><feFlood
         result="flood"
         flood-color="rgb(0,0,0)"
         flood-opacity="0.5"
         id="feFlood4120" /><feComposite
         in2="SourceGraphic"
         operator="in"
         in="flood"
         result="composite1"
         id="feComposite4122" /><feGaussianBlur
         result="blur"
         stdDeviation="0.2"
         id="feGaussianBlur4124" /><feOffset
         result="offset"
         dy="0"
         dx="0"
         id="feOffset4126" /><feComposite
         in2="offset"
         operator="over"
         in="SourceGraphic"
         result="fbSourceGraphic"
         id="feComposite4128" /><feColorMatrix
         id="feColorMatrix4130"
         values="0 0 0 -1 0 0 0 0 -1 0 0 0 0 -1 0 0 0 0 1 0"
         in="fbSourceGraphic"
         result="fbSourceGraphicAlpha" /><feFlood
         in="fbSourceGraphic"
         result="flood"
         flood-color="rgb(0,0,0)"
         flood-opacity="0.5"
         id="feFlood4132" /><feComposite
         in2="fbSourceGraphic"
         operator="in"
         in="flood"
         result="composite1"
         id="feComposite4134" /><feGaussianBlur
         result="blur"
         stdDeviation="0.2"
         id="feGaussianBlur4136" /><feOffset
         result="offset"
         dy="0"
         dx="0"
         id="feOffset4138" /><feComposite
         in2="offset"
         operator="over"
         in="fbSourceGraphic"
         result="composite2"
         id="feComposite4140" /></filter></defs><path
     d="m 192.22967,99.314637 a 93.117944,93.117944 0 1 1 -186.2358767,0 93.117944,93.117944 0 1 1 186.2358767,0 z"
     id="path3756"
     style="fill:#ecf0f1;fill-opacity:1;stroke:none"
     inkscape:connector-curvature="0" /><path
     d="m 26.118645,23.824509 c 0,0 -0.458,-0.994 -1.662,-0.994 -3.523,0 -2.27,4 -5.333,4 -0.87,0 -3.322,0 -6.005,0 l 0,-2 7,0 c 0,0 2,-2 2,-6 0,-4 -2,-7 -2,-7 l -7,0 0,-1.9799999 c 3.567,0.134 3.123,0.9799999 5,0.9799999 2.038,0 3.945,-1.9999999 3.945,-1.9999999 0,0 -0.875,0.673 -2.932,0.673 -2.336,0 -2.449,-1.525 -6.448,-1.66 -0.022,-0.003 -0.042,-0.013 -0.065,-0.013 -0.019,0 -0.034,0.008 -0.052,0.01 -0.148,-0.004 -0.289,-0.01 -0.448,-0.01 l 0,0.5 0,1.5 0,1.9999999 -6.9999995,0 c 0,0 1.517,2.797 1,7 -0.489,3.971 -2.483,6 -2.483,6 l 8.4829995,0 0,2 c -3.1939995,0 -6.4789995,0 -7.6719995,0 -2.334,0 -2.328,-2 -2.328,-2 6.5649255,7.948074 10.2182305,9 18.9999995,9 2,0 5,-1 5,-4 0,-2.002 -2,-2.745 -2,-4.5 0,-0.777 0.436,-1.506 2,-1.506 z"
     transform="matrix(5.6960803,0,0,5.6960803,-0.08695689,0.11594427)"
     id="path3"
     style="fill:#34495e;fill-opacity:1;filter:url(#filter4118)"
     inkscape:connector-curvature="0" /><path
     d="m 192.22967,99.314637 a 93.117944,93.117944 0 1 1 -186.2358767,0 93.117944,93.117944 0 1 1 186.2358767,0 z"
     id="path2986"
     style="fill:none;stroke:#34495e;stroke-width:12.16150188;stroke-linecap:square;stroke-miterlimit:4;stroke-opacity:1;stroke-dasharray:none"
     inkscape:connector-curvature="0" /></svg>